<svg width="186" height="31" fill="none" xmlns="http://www.w3.org/2000/svg"><g clip-path="url(#a)"><path d="M53.075 12.533c.948-.976 1.966-1.465 3.055-1.465.715 0 1.248.198 1.598.594.35.395.525.926.525 1.592v7.23h2.052v-7.532c0-1.116-.318-1.988-.956-2.615-.637-.628-1.516-.942-2.635-.942-.778 0-1.466.143-2.064.43-.599.287-1.17.701-1.714 1.243l-.303-1.51h-1.61v10.927h2.053v-7.952h-.001Zm18.948-.011c-.272-.69-.646-1.268-1.12-1.732a4.603 4.603 0 0 0-1.679-1.047 6.202 6.202 0 0 0-2.111-.348c-.762 0-1.47.128-2.122.384a4.961 4.961 0 0 0-1.714 1.116 5.17 5.17 0 0 0-1.154 1.801c-.28.713-.42 1.527-.42 2.442 0 .899.136 1.693.408 2.383a5.03 5.03 0 0 0 1.12 1.744 4.647 4.647 0 0 0 1.678 1.07 6.01 6.01 0 0 0 2.111.36c.762 0 1.47-.129 2.123-.384a4.888 4.888 0 0 0 1.714-1.128 5.273 5.273 0 0 0 1.154-1.825c.28-.721.42-1.539.42-2.453 0-.898-.137-1.693-.408-2.383Zm-2.006 4.464c-.18.52-.416.937-.712 1.255a2.47 2.47 0 0 1-1.026.674 3.674 3.674 0 0 1-1.19.198c-.404 0-.8-.078-1.19-.233a2.838 2.838 0 0 1-1.037-.72c-.303-.326-.548-.748-.735-1.268-.187-.519-.28-1.143-.28-1.872 0-.79.09-1.444.268-1.964.179-.52.416-.934.712-1.244.295-.31.637-.527 1.026-.651a3.889 3.889 0 0 1 1.19-.186c.404 0 .8.073 1.19.22.388.148.734.384 1.038.71.303.326.548.744.734 1.256.187.511.28 1.131.28 1.86 0 .79-.09 1.446-.268 1.965Zm10.311 3.359a4.887 4.887 0 0 0 1.725-1.069c.506-.48.91-1.093 1.213-1.837.303-.744.455-1.627.455-2.65 0-1.736-.42-3.07-1.26-4-.84-.93-1.99-1.394-3.45-1.394-.717 0-1.338.14-1.867.418a6.714 6.714 0 0 0-1.422 1l-.303-1.418h-1.703v16.437h2.029v-5.905c.327.232.719.418 1.178.558.458.14.936.21 1.434.21a5.76 5.76 0 0 0 1.97-.35Zm.513-8.265c.49.674.735 1.593.735 2.755 0 .79-.101 1.457-.303 2-.203.543-.467.985-.793 1.325a2.85 2.85 0 0 1-1.12.733c-.42.148-.84.22-1.259.22-.404 0-.809-.062-1.213-.186a3.795 3.795 0 0 1-1.143-.58V12.51c.264-.325.638-.647 1.12-.965.482-.317 1.05-.476 1.703-.476 1.025-.002 1.783.336 2.273 1.01Zm10.376 5.661a3.86 3.86 0 0 1-1.41-.918c-.405-.41-.72-.925-.945-1.546-.226-.62-.338-1.341-.338-2.162 0-.884.117-1.632.35-2.245.233-.612.551-1.111.956-1.5.404-.387.878-.67 1.422-.848a5.594 5.594 0 0 1 1.75-.267c.59 0 1.131.077 1.62.232.49.155.914.334 1.272.535l.792-2.58c-.373-.202-.882-.399-1.527-.593-.646-.194-1.481-.29-2.508-.29-1.212 0-2.305.182-3.277.546-.972.364-1.796.875-2.472 1.534a6.67 6.67 0 0 0-1.563 2.394c-.365.939-.547 1.973-.547 3.105 0 1.162.19 2.213.571 3.15a6.85 6.85 0 0 0 1.598 2.395c.684.66 1.508 1.166 2.472 1.523.964.356 2.02.534 3.172.534 1.01 0 1.862-.092 2.554-.279.691-.186 1.193-.372 1.504-.557l-.7-2.535a4.38 4.38 0 0 1-1.212.488c-.482.125-1.073.187-1.773.187-.638 0-1.224-.1-1.761-.303Z" fill="#363E4E"/><path d="M107.821 12.347a5.201 5.201 0 0 0-1.213-1.8 5.035 5.035 0 0 0-1.831-1.106 6.895 6.895 0 0 0-2.297-.372c-.824 0-1.594.137-2.309.408a5.392 5.392 0 0 0-1.866 1.173 5.445 5.445 0 0 0-1.248 1.884c-.303.743-.454 1.589-.454 2.534 0 .899.147 1.701.443 2.406a5.09 5.09 0 0 0 1.212 1.779 5.28 5.28 0 0 0 1.831 1.105 6.717 6.717 0 0 0 2.297.382c.824 0 1.594-.135 2.309-.406a5.41 5.41 0 0 0 1.866-1.174 5.49 5.49 0 0 0 1.248-1.86c.303-.729.455-1.55.455-2.465 0-.945-.148-1.775-.443-2.488Zm-3.289 4.139c-.125.418-.291.755-.501 1.011-.21.255-.451.441-.723.558a2.143 2.143 0 0 1-.852.174c-.606 0-1.143-.263-1.609-.79-.466-.527-.699-1.356-.699-2.488 0-.651.062-1.189.186-1.616.125-.426.292-.77.502-1.034.21-.264.451-.45.723-.559a2.29 2.29 0 0 1 .851-.162 2.009 2.009 0 0 1 1.609.778c.217.272.388.62.513 1.046.124.428.186.942.186 1.546.001.606-.062 1.117-.186 1.536Zm8.413-3.627a2.987 2.987 0 0 1 1.003-.86c.403-.218.792-.326 1.166-.326.42 0 .754.14 1.002.42.249.278.374.65.374 1.115v7.277h3.451v-7.72a2.556 2.556 0 0 1 1.003-.813 2.786 2.786 0 0 1 1.166-.279c.42 0 .754.14 1.003.42.248.278.373.65.373 1.115v7.277h3.452v-7.626c0-1.24-.327-2.181-.98-2.825-.653-.642-1.578-.965-2.776-.965a4.52 4.52 0 0 0-2.017.465c-.63.31-1.193.721-1.691 1.233-.591-1.132-1.687-1.698-3.288-1.698-.731 0-1.392.148-1.982.442a6.025 6.025 0 0 0-1.633 1.209l-.396-1.395h-2.682v11.16h3.451v-7.626h.001Zm18.681 0a2.987 2.987 0 0 1 1.003-.86c.404-.218.793-.326 1.166-.326.42 0 .754.14 1.003.42.248.278.373.65.373 1.115v7.277h3.452v-7.72a2.553 2.553 0 0 1 1.002-.813 2.79 2.79 0 0 1 1.166-.279c.42 0 .755.14 1.003.42.249.278.373.65.373 1.115v7.277h3.452v-7.626c0-1.24-.327-2.181-.98-2.825-.653-.642-1.578-.965-2.775-.965a4.52 4.52 0 0 0-2.018.465 6.126 6.126 0 0 0-1.691 1.233c-.59-1.132-1.687-1.698-3.288-1.698-.732 0-1.392.148-1.983.442a6.021 6.021 0 0 0-1.632 1.209l-.397-1.395h-2.682v11.16h3.452v-7.626h.001Zm25.345 1.581c0-1.72-.459-3.046-1.376-3.976-.917-.93-2.145-1.395-3.685-1.395-.84 0-1.605.144-2.297.43a5.11 5.11 0 0 0-1.784 1.22 5.506 5.506 0 0 0-1.155 1.895c-.272.736-.408 1.546-.408 2.43 0 .992.167 1.845.501 2.557a4.984 4.984 0 0 0 1.353 1.767 5.61 5.61 0 0 0 1.982 1.034 8.341 8.341 0 0 0 2.391.337c.933 0 1.722-.078 2.367-.232.645-.155 1.178-.334 1.598-.535l-.63-2.37c-.326.17-.731.317-1.212.44-.482.125-1.042.186-1.68.186-.917 0-1.679-.178-2.285-.535-.606-.356-.91-.921-.91-1.697v-.093h7.23V14.44Zm-7.16-.837c.062-.651.272-1.166.63-1.546.357-.38.808-.57 1.352-.57.295 0 .548.058.758.174.21.117.381.27.513.465.132.194.23.415.292.662.062.248.093.504.093.768l-3.638.047Zm11.307 6.882v-5.58c0-1.147.237-1.953.712-2.418.474-.465 1.068-.698 1.784-.698.388 0 .715.039.98.116.264.078.482.163.653.256l.559-2.674a2.783 2.783 0 0 0-.687-.29 3.33 3.33 0 0 0-.945-.128 3.68 3.68 0 0 0-2.192.674 3.31 3.31 0 0 0-.723.709 5.387 5.387 0 0 0-.513.826l-.35-1.954h-2.706v11.16h3.428Zm9.798-2.43a2.612 2.612 0 0 1-1.003-.582 3.057 3.057 0 0 1-.723-1.046c-.186-.426-.28-.95-.28-1.57 0-1.1.28-1.925.84-2.475.559-.551 1.29-.826 2.192-.826.388 0 .773.063 1.154.186.381.125.727.28 1.038.465l.723-2.348a6.292 6.292 0 0 0-1.737-.627 8.488 8.488 0 0 0-1.574-.163c-.918 0-1.75.144-2.496.43a5.764 5.764 0 0 0-1.936 1.209 5.335 5.335 0 0 0-1.259 1.86c-.296.721-.443 1.515-.443 2.383 0 .946.155 1.778.467 2.5.31.72.735 1.325 1.271 1.814a5.31 5.31 0 0 0 1.912 1.104 7.559 7.559 0 0 0 2.414.371c.746 0 1.43-.084 2.053-.255.622-.17 1.064-.333 1.329-.488l-.63-2.326a6.17 6.17 0 0 1-.875.361c-.381.131-.82.197-1.317.197-.374 0-.748-.057-1.12-.174Zm14.805-3.615c0-1.72-.459-3.046-1.376-3.976-.918-.93-2.146-1.395-3.685-1.395-.84 0-1.606.144-2.298.43a5.12 5.12 0 0 0-1.784 1.22 5.488 5.488 0 0 0-1.154 1.895c-.272.736-.408 1.546-.408 2.43 0 .992.167 1.845.501 2.557a4.982 4.982 0 0 0 1.352 1.767c.568.465 1.229.81 1.983 1.034a8.334 8.334 0 0 0 2.39.337c.933 0 1.722-.078 2.368-.232.645-.155 1.178-.334 1.598-.535l-.63-2.37a5.73 5.73 0 0 1-1.213.44c-.482.125-1.042.186-1.679.186-.918 0-1.679-.178-2.286-.535-.606-.356-.909-.921-.909-1.697v-.093h7.23V14.44Zm-7.16-.837c.062-.651.272-1.166.63-1.546.357-.38.808-.57 1.352-.57.296 0 .548.058.758.174.21.117.381.27.513.465.132.194.23.415.292.662.062.248.093.504.093.768l-3.638.047Z" fill="#363E4E"/><path d="M36.709 30.877c-2.673-.011-4.801-2.09-4.802-4.692 0-2.85 2.493-5.285 5.42-5.295 2.584-.009 4.928 2.242 4.931 4.735.005 2.834-2.563 5.265-5.55 5.252Zm-17.634-3.973c.038-2.808 2.421-5.25 5.125-5.251a3.84 3.84 0 0 1 3.752 2.936c.737 3.028-1.805 6.315-4.933 6.378-2.22.045-3.975-1.763-3.944-4.063ZM41.77 14.946c.61-1.712.01-3.336-1.51-4.35-1.913-1.278-4.924-.733-6.514 1.18-.746.897-1.222 1.906-1.099 3.092.233 2.228 2.03 3.606 4.435 3.445 2.381-.283 4.056-1.598 4.687-3.367Zm-17.536 4.24c-2.336 0-3.828-1.86-3.328-4.15.474-2.173 2.614-3.926 4.825-3.951 2.35-.026 3.913 1.887 3.412 4.172-.484 2.198-2.647 3.93-4.909 3.93ZM9.123 27.13c.19-1.835 1.215-3.51 3.283-4.404 2.46-1.065 4.84.68 4.617 3.35-.172 2.052-1.21 3.582-3.053 4.498-2.473 1.23-4.897-.33-4.847-3.444ZM38.756.003c.45-.045 1.144.132 1.786.528 1.466.906 1.895 2.51 1.094 4.1-.973 1.932-3.575 3.127-5.694 2.613-2.35-.57-3.302-2.865-1.97-4.867C35.02.802 36.535.016 38.756.003ZM0 27.227c.069-1.31 1.063-2.873 2.899-3.844 2.099-1.11 4.29.261 4.147 2.594-.122 2.004-1.1 3.566-2.894 4.527C1.995 31.66 0 30.444 0 27.227Zm25.34-18.37c-2.102-.005-3.403-1.716-2.822-3.71.627-2.149 3.33-3.797 5.43-3.309 1.723.4 2.594 1.89 2.099 3.59-.555 1.902-2.658 3.434-4.707 3.43ZM16 12.538c1.77.006 2.977 1.525 2.664 3.353-.327 1.913-2.05 3.592-3.98 3.883-1.754.262-3.183-.94-3.202-2.696-.025-2.282 2.228-4.547 4.517-4.54Zm-2.752-4.749c.076-2.446 3.003-4.793 5.323-4.267 1.093.247 1.863 1.114 1.962 2.21.221 2.447-2.87 5.127-5.293 4.59-1.253-.28-2.031-1.27-1.992-2.533ZM5.22 20.567c-1.391-.005-2.367-1.048-2.35-2.513.023-2.117 1.872-4.25 3.973-4.583 1.499-.236 2.7.693 2.849 2.206.227 2.299-2.15 4.898-4.471 4.89Zm.16-11.354c.027-1.9 2.015-3.937 3.95-4.05 1.496-.086 2.485 1.012 2.264 2.512-.255 1.731-2.083 3.476-3.831 3.656-1.403.145-2.404-.745-2.384-2.118Z" fill="#40BDD7"/><path d="M36.709 30.877c-2.673-.011-4.801-2.09-4.802-4.692 0-2.85 2.493-5.285 5.42-5.295 2.584-.009 4.928 2.242 4.931 4.735.005 2.834-2.563 5.265-5.55 5.252Zm-17.634-3.973c.038-2.808 2.421-5.25 5.125-5.251a3.84 3.84 0 0 1 3.752 2.936c.737 3.028-1.805 6.315-4.933 6.378-2.22.045-3.975-1.763-3.944-4.063ZM41.77 14.946c.61-1.712.01-3.336-1.51-4.35-1.913-1.278-4.924-.733-6.514 1.18-.746.897-1.222 1.906-1.099 3.092.233 2.228 2.03 3.606 4.435 3.445 2.381-.283 4.056-1.598 4.687-3.367Zm-17.536 4.24c-2.336 0-3.828-1.86-3.328-4.15.474-2.173 2.614-3.926 4.825-3.951 2.35-.026 3.913 1.887 3.412 4.172-.484 2.198-2.647 3.93-4.909 3.93ZM9.123 27.13c.19-1.835 1.215-3.51 3.283-4.404 2.46-1.065 4.84.68 4.617 3.35-.172 2.052-1.21 3.582-3.053 4.498-2.473 1.23-4.897-.33-4.847-3.444ZM38.756.003c.45-.045 1.144.132 1.786.528 1.466.906 1.895 2.51 1.094 4.1-.973 1.932-3.575 3.127-5.694 2.613-2.35-.57-3.302-2.865-1.97-4.867C35.02.802 36.535.016 38.756.003ZM0 27.227c.069-1.31 1.063-2.873 2.899-3.844 2.099-1.11 4.29.261 4.147 2.594-.122 2.004-1.1 3.566-2.894 4.527C1.995 31.66 0 30.444 0 27.227Zm25.34-18.37c-2.102-.005-3.403-1.716-2.822-3.71.627-2.149 3.33-3.797 5.43-3.309 1.723.4 2.594 1.89 2.099 3.59-.555 1.902-2.658 3.434-4.707 3.43ZM16 12.538c1.77.006 2.977 1.525 2.664 3.353-.327 1.913-2.05 3.592-3.98 3.883-1.754.262-3.183-.94-3.202-2.696-.025-2.282 2.228-4.547 4.517-4.54Zm-2.752-4.749c.076-2.446 3.003-4.793 5.323-4.267 1.093.247 1.863 1.114 1.962 2.21.221 2.447-2.87 5.127-5.293 4.59-1.253-.28-2.031-1.27-1.992-2.533ZM5.22 20.567c-1.391-.005-2.367-1.048-2.35-2.513.023-2.117 1.872-4.25 3.973-4.583 1.499-.236 2.7.693 2.849 2.206.227 2.299-2.15 4.898-4.471 4.89Zm.16-11.354c.027-1.9 2.015-3.937 3.95-4.05 1.496-.086 2.485 1.012 2.264 2.512-.255 1.731-2.083 3.476-3.831 3.656-1.403.145-2.404-.745-2.384-2.118Z" fill="#40BDD7"/></g><defs><clipPath id="a"><path fill="#fff" d="M0 0h186v31H0z"/></clipPath></defs></svg>